# 3ds Max Wavefront OBJ Exporter v0.97b - (c)2007 guruware
# File Created: 19.04.2015 10:26:26

#
# object Plane001
#

v  -12.50 4.93 12.50
v  -10.00 4.93 12.50
v  -10.00 4.93 10.00
v  -12.50 4.93 10.00
v  -7.50 4.93 12.50
v  -7.50 4.93 10.00
v  -5.00 4.93 12.50
v  -5.00 4.93 10.00
v  -2.50 4.93 12.50
v  -2.50 4.93 10.00
v  0.00 4.93 12.50
v  0.00 4.93 10.00
v  2.50 4.93 12.50
v  2.50 4.93 10.00
v  5.00 4.93 12.50
v  5.00 4.93 10.00
v  7.50 4.93 12.50
v  7.50 4.93 10.00
v  10.00 4.93 12.50
v  10.00 4.93 10.00
v  12.50 4.93 12.50
v  12.50 4.93 10.00
v  -10.00 4.93 7.50
v  -12.50 4.93 7.50
v  -10.00 -0.01 10.00
v  -7.50 -0.01 10.00
v  -7.50 -0.01 7.50
v  -10.00 -0.01 7.50
v  -5.00 -0.01 10.00
v  -5.00 -0.01 7.50
v  -2.50 -0.01 10.00
v  -2.50 -0.01 7.50
v  0.00 -0.01 10.00
v  0.00 -0.01 7.50
v  2.50 -0.01 10.00
v  2.50 -0.01 7.50
v  5.00 -0.01 10.00
v  5.00 -0.01 7.50
v  7.50 -0.01 10.00
v  7.50 -0.01 7.50
v  10.00 -0.01 10.00
v  10.00 -0.01 7.50
v  12.50 4.93 7.50
v  10.00 4.93 7.50
v  -10.00 4.93 5.00
v  -12.50 4.93 5.00
v  -7.50 -0.01 5.00
v  -10.00 -0.01 5.00
v  -7.50 4.93 7.50
v  -5.00 4.93 7.50
v  -5.00 4.93 5.00
v  -7.50 4.93 5.00
v  -2.50 4.93 7.50
v  -2.50 4.93 5.00
v  0.00 4.93 7.50
v  0.00 4.93 5.00
v  2.50 4.93 7.50
v  2.50 4.93 5.00
v  5.00 4.93 7.50
v  5.00 4.93 5.00
v  7.50 4.93 7.50
v  7.50 4.93 5.00
v  10.00 4.93 5.00
v  12.50 4.93 5.00
v  -10.00 4.93 2.50
v  -12.50 4.93 2.50
v  -7.50 -0.01 2.50
v  -10.00 -0.01 2.50
v  -5.00 -0.01 5.00
v  -5.00 -0.01 2.50
v  -2.50 -0.01 5.00
v  -2.50 -0.01 2.50
v  0.00 -0.01 5.00
v  0.00 -0.01 2.50
v  2.50 4.93 2.50
v  0.00 4.93 2.50
v  2.50 -0.01 5.00
v  5.00 -0.01 5.00
v  5.00 -0.01 2.50
v  2.50 -0.01 2.50
v  7.50 -0.01 5.00
v  7.50 -0.01 2.50
v  10.00 -0.01 5.00
v  10.00 -0.01 2.50
v  12.50 4.93 2.50
v  10.00 4.93 2.50
v  -10.00 4.93 -0.00
v  -12.50 4.93 -0.00
v  -7.50 4.93 2.50
v  -7.50 4.93 -0.00
v  -5.00 4.93 2.50
v  -5.00 4.93 -0.00
v  -2.50 4.93 2.50
v  -2.50 4.93 -0.00
v  0.00 -0.01 0.00
v  -2.50 -0.01 0.00
v  2.50 -0.01 0.00
v  5.00 -0.01 0.00
v  5.00 4.93 2.50
v  7.50 4.93 2.50
v  7.50 4.93 -0.00
v  5.00 4.93 -0.00
v  10.00 -0.01 0.00
v  7.50 -0.01 0.00
v  12.50 4.93 -0.00
v  10.00 4.93 -0.00
v  -10.00 4.93 -2.50
v  -12.50 4.93 -2.50
v  -10.00 -0.01 0.00
v  -7.50 -0.01 0.00
v  -7.50 -0.01 -2.50
v  -10.00 -0.01 -2.50
v  -5.00 4.93 -2.50
v  -7.50 4.93 -2.50
v  -5.00 -0.01 0.00
v  -2.50 -0.01 -2.50
v  -5.00 -0.01 -2.50
v  0.00 4.93 -0.00
v  0.00 4.93 -2.50
v  -2.50 4.93 -2.50
v  2.50 4.93 -0.00
v  2.50 4.93 -2.50
v  5.00 4.93 -2.50
v  7.50 4.93 -2.50
v  10.00 -0.01 -2.50
v  7.50 -0.01 -2.50
v  12.50 4.93 -2.50
v  10.00 4.93 -2.50
v  -10.00 4.93 -5.00
v  -12.50 4.93 -5.00
v  -7.50 -0.01 -5.00
v  -10.00 -0.01 -5.00
v  -5.00 -0.01 -5.00
v  -2.50 -0.01 -5.00
v  0.00 -0.01 -2.50
v  0.00 -0.01 -5.00
v  2.50 4.93 -5.00
v  0.00 4.93 -5.00
v  2.50 -0.01 -2.50
v  5.00 -0.01 -2.50
v  5.00 -0.01 -5.00
v  2.50 -0.01 -5.00
v  7.50 -0.01 -5.00
v  10.00 -0.01 -5.00
v  12.50 4.93 -5.00
v  10.00 4.93 -5.00
v  -10.00 4.93 -7.50
v  -12.50 4.93 -7.50
v  -7.50 -0.01 -7.50
v  -10.00 -0.01 -7.50
v  -7.50 4.93 -5.00
v  -5.00 4.93 -5.00
v  -5.00 4.93 -7.50
v  -7.50 4.93 -7.50
v  -2.50 4.93 -5.00
v  -2.50 4.93 -7.50
v  0.00 -0.01 -7.50
v  -2.50 -0.01 -7.50
v  2.50 -0.01 -7.50
v  5.00 -0.01 -7.50
v  5.00 4.94 -5.00
v  7.50 4.93 -5.00
v  7.50 4.93 -7.50
v  5.00 4.94 -7.50
v  10.00 4.93 -7.50
v  12.50 4.93 -7.50
v  -10.00 4.93 -10.00
v  -12.50 4.93 -10.00
v  -7.50 -0.01 -10.00
v  -10.00 -0.01 -10.00
v  -5.00 -0.01 -7.50
v  -5.00 -0.01 -10.00
v  -2.50 4.93 -10.00
v  -5.00 4.93 -10.00
v  0.00 4.93 -7.50
v  0.00 4.93 -10.00
v  2.50 4.93 -7.50
v  2.50 4.93 -10.00
v  5.00 -0.01 -10.00
v  2.50 -0.01 -10.00
v  7.50 -0.01 -7.50
v  7.50 -0.01 -10.00
v  10.00 -0.01 -7.50
v  10.00 -0.01 -10.00
v  12.50 4.93 -10.00
v  10.00 4.93 -10.00
v  -10.00 4.93 -12.50
v  -12.50 4.93 -12.50
v  -7.50 4.93 -10.00
v  -7.50 4.93 -12.50
v  -5.00 4.93 -12.50
v  -2.50 4.93 -12.50
v  0.00 4.93 -12.50
v  2.50 4.93 -12.50
v  5.00 4.93 -10.00
v  5.00 4.93 -12.50
v  7.50 4.93 -10.00
v  7.50 4.93 -12.50
v  10.00 4.93 -12.50
v  12.50 4.93 -12.50
v  -12.50 -0.01 10.00
v  -12.50 -0.01 12.50
v  -10.00 -0.01 12.50
v  -7.50 -0.01 12.50
v  -5.00 -0.01 12.50
v  -2.50 -0.01 12.50
v  0.00 -0.01 12.50
v  2.50 -0.01 12.50
v  5.00 -0.01 12.50
v  7.50 -0.01 12.50
v  10.00 -0.01 12.50
v  12.50 -0.01 12.50
v  12.50 -0.01 10.00
v  12.50 -0.01 7.50
v  12.50 -0.01 5.00
v  12.50 -0.01 2.50
v  12.50 -0.01 0.00
v  12.50 -0.01 -2.50
v  12.50 -0.01 -5.00
v  12.50 -0.01 -7.50
v  12.50 -0.01 -10.00
v  12.50 -0.01 -12.50
v  10.00 -0.01 -12.50
v  7.50 -0.01 -12.50
v  5.00 -0.01 -12.50
v  2.50 -0.01 -12.50
v  0.00 -0.01 -12.50
v  -2.50 -0.01 -12.50
v  -5.00 -0.01 -12.50
v  -7.50 -0.01 -12.50
v  -10.00 -0.01 -12.50
v  -12.50 -0.01 -12.50
v  -12.50 -0.01 -10.00
v  -12.50 -0.01 -7.50
v  -12.50 -0.01 -5.00
v  -12.50 -0.01 -2.50
v  -12.50 -0.01 0.00
v  -12.50 -0.01 2.50
v  -12.50 -0.01 5.00
v  -12.50 -0.01 7.50
v  -2.50 -0.01 -10.00
v  0.00 -0.01 -10.00
# 242 vertices

vn 0.00 1.00 -0.00
vn -1.00 0.00 0.00
vn 0.00 0.00 1.00
vn 1.00 0.00 0.00
vn 0.00 -0.00 -1.00
# 5 vertex normals

vt 0.00 0.00 0.00
vt 0.10 0.00 0.00
vt 0.10 0.10 0.00
vt 0.00 0.10 0.00
vt 0.20 0.00 0.00
vt 0.20 0.10 0.00
vt 0.30 0.00 0.00
vt 0.30 0.10 0.00
vt 0.40 0.00 0.00
vt 0.40 0.10 0.00
vt 0.50 0.00 0.00
vt 0.50 0.10 0.00
vt 0.60 0.00 0.00
vt 0.60 0.10 0.00
vt 0.70 0.00 0.00
vt 0.70 0.10 0.00
vt 0.80 0.00 0.00
vt 0.80 0.10 0.00
vt 0.90 0.00 0.00
vt 0.90 0.10 0.00
vt 1.00 0.00 0.00
vt 1.00 0.10 0.00
vt 0.10 0.20 0.00
vt 0.00 0.20 0.00
vt 0.20 0.20 0.00
vt 0.30 0.20 0.00
vt 0.40 0.20 0.00
vt 0.50 0.20 0.00
vt 0.60 0.20 0.00
vt 0.70 0.20 0.00
vt 0.80 0.20 0.00
vt 0.90 0.20 0.00
vt 1.00 0.20 0.00
vt 0.10 0.30 0.00
vt 0.00 0.30 0.00
vt 0.20 0.30 0.00
vt 0.30 0.30 0.00
vt 0.40 0.30 0.00
vt 0.50 0.30 0.00
vt 0.60 0.30 0.00
vt 0.70 0.30 0.00
vt 0.80 0.30 0.00
vt 0.90 0.30 0.00
vt 1.00 0.30 0.00
vt 0.10 0.40 0.00
vt 0.00 0.40 0.00
vt 0.20 0.40 0.00
vt 0.30 0.40 0.00
vt 0.40 0.40 0.00
vt 0.50 0.40 0.00
vt 0.60 0.40 0.00
vt 0.70 0.40 0.00
vt 0.80 0.40 0.00
vt 0.90 0.40 0.00
vt 1.00 0.40 0.00
vt 0.10 0.50 0.00
vt 0.00 0.50 0.00
vt 0.20 0.50 0.00
vt 0.30 0.50 0.00
vt 0.40 0.50 0.00
vt 0.50 0.50 0.00
vt 0.60 0.50 0.00
vt 0.70 0.50 0.00
vt 0.80 0.50 0.00
vt 0.90 0.50 0.00
vt 1.00 0.50 0.00
vt 0.10 0.60 0.00
vt 0.00 0.60 0.00
vt 0.20 0.60 0.00
vt 0.30 0.60 0.00
vt 0.40 0.60 0.00
vt 0.50 0.60 0.00
vt 0.60 0.60 0.00
vt 0.70 0.60 0.00
vt 0.80 0.60 0.00
vt 0.90 0.60 0.00
vt 1.00 0.60 0.00
vt 0.10 0.70 0.00
vt 0.00 0.70 0.00
vt 0.20 0.70 0.00
vt 0.30 0.70 0.00
vt 0.40 0.70 0.00
vt 0.50 0.70 0.00
vt 0.60 0.70 0.00
vt 0.70 0.70 0.00
vt 0.80 0.70 0.00
vt 0.90 0.70 0.00
vt 1.00 0.70 0.00
vt 0.10 0.80 0.00
vt 0.00 0.80 0.00
vt 0.20 0.80 0.00
vt 0.30 0.80 0.00
vt 0.40 0.80 0.00
vt 0.50 0.80 0.00
vt 0.60 0.80 0.00
vt 0.70 0.80 0.00
vt 0.80 0.80 0.00
vt 0.90 0.80 0.00
vt 1.00 0.80 0.00
vt 0.10 0.90 0.00
vt 0.00 0.90 0.00
vt 0.20 0.90 0.00
vt 0.30 0.90 0.00
vt 0.40 0.90 0.00
vt 0.50 0.90 0.00
vt 0.60 0.90 0.00
vt 0.70 0.90 0.00
vt 0.80 0.90 0.00
vt 0.90 0.90 0.00
vt 1.00 0.90 0.00
vt 0.10 1.00 0.00
vt 0.00 1.00 0.00
vt 0.20 1.00 0.00
vt 0.30 1.00 0.00
vt 0.40 1.00 0.00
vt 0.50 1.00 0.00
vt 0.60 1.00 0.00
vt 0.70 1.00 0.00
vt 0.80 1.00 0.00
vt 0.90 1.00 0.00
vt 1.00 1.00 0.00
# 121 texture coords

g Plane001
f 1/1/1 2/2/1 3/3/1 
f 3/3/1 4/4/1 1/1/1 
f 2/2/1 5/5/1 6/6/1 
f 6/6/1 3/3/1 2/2/1 
f 5/5/1 7/7/1 8/8/1 
f 8/8/1 6/6/1 5/5/1 
f 7/7/1 9/9/1 10/10/1 
f 10/10/1 8/8/1 7/7/1 
f 9/9/1 11/11/1 12/12/1 
f 12/12/1 10/10/1 9/9/1 
f 11/11/1 13/13/1 14/14/1 
f 14/14/1 12/12/1 11/11/1 
f 13/13/1 15/15/1 16/16/1 
f 16/16/1 14/14/1 13/13/1 
f 15/15/1 17/17/1 18/18/1 
f 18/18/1 16/16/1 15/15/1 
f 17/17/1 19/19/1 20/20/1 
f 20/20/1 18/18/1 17/17/1 
f 19/19/1 21/21/1 22/22/1 
f 22/22/1 20/20/1 19/19/1 
f 4/4/1 3/3/1 23/23/1 
f 23/23/1 24/24/1 4/4/1 
f 25/3/1 26/6/1 27/25/1 
f 27/25/1 28/23/1 25/3/1 
f 26/6/1 29/8/1 30/26/1 
f 30/26/1 27/25/1 26/6/1 
f 29/8/1 31/10/1 32/27/1 
f 32/27/1 30/26/1 29/8/1 
f 31/10/1 33/12/1 34/28/1 
f 34/28/1 32/27/1 31/10/1 
f 33/12/1 35/14/1 36/29/1 
f 36/29/1 34/28/1 33/12/1 
f 35/14/1 37/16/1 38/30/1 
f 38/30/1 36/29/1 35/14/1 
f 37/16/1 39/18/1 40/31/1 
f 40/31/1 38/30/1 37/16/1 
f 39/18/1 41/20/1 42/32/1 
f 42/32/1 40/31/1 39/18/1 
f 20/20/1 22/22/1 43/33/1 
f 43/33/1 44/32/1 20/20/1 
f 24/24/1 23/23/1 45/34/1 
f 45/34/1 46/35/1 24/24/1 
f 28/23/1 27/25/1 47/36/1 
f 47/36/1 48/34/1 28/23/1 
f 49/25/1 50/26/1 51/37/1 
f 51/37/1 52/36/1 49/25/1 
f 50/26/1 53/27/1 54/38/1 
f 54/38/1 51/37/1 50/26/1 
f 53/27/1 55/28/1 56/39/1 
f 56/39/1 54/38/1 53/27/1 
f 55/28/1 57/29/1 58/40/1 
f 58/40/1 56/39/1 55/28/1 
f 57/29/1 59/30/1 60/41/1 
f 60/41/1 58/40/1 57/29/1 
f 59/30/1 61/31/1 62/42/1 
f 62/42/1 60/41/1 59/30/1 
f 61/31/1 44/32/1 63/43/1 
f 63/43/1 62/42/1 61/31/1 
f 44/32/1 43/33/1 64/44/1 
f 64/44/1 63/43/1 44/32/1 
f 46/35/1 45/34/1 65/45/1 
f 65/45/1 66/46/1 46/35/1 
f 48/34/1 47/36/1 67/47/1 
f 67/47/1 68/45/1 48/34/1 
f 47/36/1 69/37/1 70/48/1 
f 70/48/1 67/47/1 47/36/1 
f 69/37/1 71/38/1 72/49/1 
f 72/49/1 70/48/1 69/37/1 
f 71/38/1 73/39/1 74/50/1 
f 74/50/1 72/49/1 71/38/1 
f 56/39/1 58/40/1 75/51/1 
f 75/51/1 76/50/1 56/39/1 
f 77/40/1 78/41/1 79/52/1 
f 79/52/1 80/51/1 77/40/1 
f 78/41/1 81/42/1 82/53/1 
f 82/53/1 79/52/1 78/41/1 
f 81/42/1 83/43/1 84/54/1 
f 84/54/1 82/53/1 81/42/1 
f 63/43/1 64/44/1 85/55/1 
f 85/55/1 86/54/1 63/43/1 
f 66/46/1 65/45/1 87/56/1 
f 87/56/1 88/57/1 66/46/1 
f 65/45/1 89/47/1 90/58/1 
f 90/58/1 87/56/1 65/45/1 
f 89/47/1 91/48/1 92/59/1 
f 92/59/1 90/58/1 89/47/1 
f 91/48/1 93/49/1 94/60/1 
f 94/60/1 92/59/1 91/48/1 
f 72/49/1 74/50/1 95/61/1 
f 95/61/1 96/60/1 72/49/1 
f 74/50/1 80/51/1 97/62/1 
f 97/62/1 95/61/1 74/50/1 
f 80/51/1 79/52/1 98/63/1 
f 98/63/1 97/62/1 80/51/1 
f 99/52/1 100/53/1 101/64/1 
f 101/64/1 102/63/1 99/52/1 
f 82/53/1 84/54/1 103/65/1 
f 103/65/1 104/64/1 82/53/1 
f 86/54/1 85/55/1 105/66/1 
f 105/66/1 106/65/1 86/54/1 
f 88/57/1 87/56/1 107/67/1 
f 107/67/1 108/68/1 88/57/1 
f 109/56/1 110/58/1 111/69/1 
f 111/69/1 112/67/1 109/56/1 
f 90/58/1 92/59/1 113/70/1 
f 113/70/1 114/69/1 90/58/1 
f 115/59/1 96/60/1 116/71/1 
f 116/71/1 117/70/1 115/59/1 
f 94/60/1 118/61/1 119/72/1 
f 119/72/1 120/71/1 94/60/1 
f 118/61/1 121/62/1 122/73/1 
f 122/73/1 119/72/1 118/61/1 
f 121/62/1 102/63/1 123/74/1 
f 123/74/1 122/73/1 121/62/1 
f 102/63/1 101/64/1 124/75/1 
f 124/75/1 123/74/1 102/63/1 
f 104/64/1 103/65/1 125/76/1 
f 125/76/1 126/75/1 104/64/1 
f 106/65/1 105/66/1 127/77/1 
f 127/77/1 128/76/1 106/65/1 
f 108/68/1 107/67/1 129/78/1 
f 129/78/1 130/79/1 108/68/1 
f 112/67/1 111/69/1 131/80/1 
f 131/80/1 132/78/1 112/67/1 
f 111/69/1 117/70/1 133/81/1 
f 133/81/1 131/80/1 111/69/1 
f 117/70/1 116/71/1 134/82/1 
f 134/82/1 133/81/1 117/70/1 
f 116/71/1 135/72/1 136/83/1 
f 136/83/1 134/82/1 116/71/1 
f 119/72/1 122/73/1 137/84/1 
f 137/84/1 138/83/1 119/72/1 
f 139/73/1 140/74/1 141/85/1 
f 141/85/1 142/84/1 139/73/1 
f 140/74/1 126/75/1 143/86/1 
f 143/86/1 141/85/1 140/74/1 
f 126/75/1 125/76/1 144/87/1 
f 144/87/1 143/86/1 126/75/1 
f 128/76/1 127/77/1 145/88/1 
f 145/88/1 146/87/1 128/76/1 
f 130/79/1 129/78/1 147/89/1 
f 147/89/1 148/90/1 130/79/1 
f 132/78/1 131/80/1 149/91/1 
f 149/91/1 150/89/1 132/78/1 
f 151/80/1 152/81/1 153/92/1 
f 153/92/1 154/91/1 151/80/1 
f 152/81/1 155/82/1 156/93/1 
f 156/93/1 153/92/1 152/81/1 
f 134/82/1 136/83/1 157/94/1 
f 157/94/1 158/93/1 134/82/1 
f 136/83/1 142/84/1 159/95/1 
f 159/95/1 157/94/1 136/83/1 
f 142/84/1 141/85/1 160/96/1 
f 160/96/1 159/95/1 142/84/1 
f 161/85/1 162/86/1 163/97/1 
f 163/97/1 164/96/1 161/85/1 
f 162/86/1 146/87/1 165/98/1 
f 165/98/1 163/97/1 162/86/1 
f 146/87/1 145/88/1 166/99/1 
f 166/99/1 165/98/1 146/87/1 
f 148/90/1 147/89/1 167/100/1 
f 167/100/1 168/101/1 148/90/1 
f 150/89/1 149/91/1 169/102/1 
f 169/102/1 170/100/1 150/89/1 
f 149/91/1 171/92/1 172/103/1 
f 172/103/1 169/102/1 149/91/1 
f 153/92/1 156/93/1 173/104/1 
f 173/104/1 174/103/1 153/92/1 
f 156/93/1 175/94/1 176/105/1 
f 176/105/1 173/104/1 156/93/1 
f 175/94/1 177/95/1 178/106/1 
f 178/106/1 176/105/1 175/94/1 
f 159/95/1 160/96/1 179/107/1 
f 179/107/1 180/106/1 159/95/1 
f 160/96/1 181/97/1 182/108/1 
f 182/108/1 179/107/1 160/96/1 
f 181/97/1 183/98/1 184/109/1 
f 184/109/1 182/108/1 181/97/1 
f 165/98/1 166/99/1 185/110/1 
f 185/110/1 186/109/1 165/98/1 
f 168/101/1 167/100/1 187/111/1 
f 187/111/1 188/112/1 168/101/1 
f 167/100/1 189/102/1 190/113/1 
f 190/113/1 187/111/1 167/100/1 
f 189/102/1 174/103/1 191/114/1 
f 191/114/1 190/113/1 189/102/1 
f 174/103/1 173/104/1 192/115/1 
f 192/115/1 191/114/1 174/103/1 
f 173/104/1 176/105/1 193/116/1 
f 193/116/1 192/115/1 173/104/1 
f 176/105/1 178/106/1 194/117/1 
f 194/117/1 193/116/1 176/105/1 
f 178/106/1 195/107/1 196/118/1 
f 196/118/1 194/117/1 178/106/1 
f 195/107/1 197/108/1 198/119/1 
f 198/119/1 196/118/1 195/107/1 
f 197/108/1 186/109/1 199/120/1 
f 199/120/1 198/119/1 197/108/1 
f 186/109/1 185/110/1 200/121/1 
f 200/121/1 199/120/1 186/109/1 
f 201/4/2 202/1/2 1/1/2 
f 1/1/2 4/4/2 201/4/2 
f 202/1/3 203/2/3 2/2/3 
f 2/2/3 1/1/3 202/1/3 
f 203/2/3 204/5/3 5/5/3 
f 5/5/3 2/2/3 203/2/3 
f 204/5/3 205/7/3 7/7/3 
f 7/7/3 5/5/3 204/5/3 
f 205/7/3 206/9/3 9/9/3 
f 9/9/3 7/7/3 205/7/3 
f 206/9/3 207/11/3 11/11/3 
f 11/11/3 9/9/3 206/9/3 
f 207/11/3 208/13/3 13/13/3 
f 13/13/3 11/11/3 207/11/3 
f 208/13/3 209/15/3 15/15/3 
f 15/15/3 13/13/3 208/13/3 
f 209/15/3 210/17/3 17/17/3 
f 17/17/3 15/15/3 209/15/3 
f 210/17/3 211/19/3 19/19/3 
f 19/19/3 17/17/3 210/17/3 
f 211/19/3 212/21/3 21/21/3 
f 21/21/3 19/19/3 211/19/3 
f 212/21/4 213/22/4 22/22/4 
f 22/22/4 21/21/4 212/21/4 
f 213/22/4 214/33/4 43/33/4 
f 43/33/4 22/22/4 213/22/4 
f 214/33/4 215/44/4 64/44/4 
f 64/44/4 43/33/4 214/33/4 
f 215/44/4 216/55/4 85/55/4 
f 85/55/4 64/44/4 215/44/4 
f 216/55/4 217/66/4 105/66/4 
f 105/66/4 85/55/4 216/55/4 
f 217/66/4 218/77/4 127/77/4 
f 127/77/4 105/66/4 217/66/4 
f 218/77/4 219/88/4 145/88/4 
f 145/88/4 127/77/4 218/77/4 
f 219/88/4 220/99/4 166/99/4 
f 166/99/4 145/88/4 219/88/4 
f 220/99/4 221/110/4 185/110/4 
f 185/110/4 166/99/4 220/99/4 
f 221/110/4 222/121/4 200/121/4 
f 200/121/4 185/110/4 221/110/4 
f 222/121/5 223/120/5 199/120/5 
f 199/120/5 200/121/5 222/121/5 
f 223/120/5 224/119/5 198/119/5 
f 198/119/5 199/120/5 223/120/5 
f 224/119/5 225/118/5 196/118/5 
f 196/118/5 198/119/5 224/119/5 
f 225/118/5 226/117/5 194/117/5 
f 194/117/5 196/118/5 225/118/5 
f 226/117/5 227/116/5 193/116/5 
f 193/116/5 194/117/5 226/117/5 
f 227/116/5 228/115/5 192/115/5 
f 192/115/5 193/116/5 227/116/5 
f 228/115/5 229/114/5 191/114/5 
f 191/114/5 192/115/5 228/115/5 
f 229/114/5 230/113/5 190/113/5 
f 190/113/5 191/114/5 229/114/5 
f 230/113/5 231/111/5 187/111/5 
f 187/111/5 190/113/5 230/113/5 
f 231/111/5 232/112/5 188/112/5 
f 188/112/5 187/111/5 231/111/5 
f 232/112/2 233/101/2 168/101/2 
f 168/101/2 188/112/2 232/112/2 
f 233/101/2 234/90/2 148/90/2 
f 148/90/2 168/101/2 233/101/2 
f 234/90/2 235/79/2 130/79/2 
f 130/79/2 148/90/2 234/90/2 
f 235/79/2 236/68/2 108/68/2 
f 108/68/2 130/79/2 235/79/2 
f 236/68/2 237/57/2 88/57/2 
f 88/57/2 108/68/2 236/68/2 
f 237/57/2 238/46/2 66/46/2 
f 66/46/2 88/57/2 237/57/2 
f 238/46/2 239/35/2 46/35/2 
f 46/35/2 66/46/2 238/46/2 
f 239/35/2 240/24/2 24/24/2 
f 24/24/2 46/35/2 239/35/2 
f 240/24/2 201/4/2 4/4/2 
f 4/4/2 24/24/2 240/24/2 
f 26/6/5 25/3/5 3/3/5 
f 3/3/5 6/6/5 26/6/5 
f 25/3/4 28/23/4 23/23/4 
f 23/23/4 3/3/4 25/3/4 
f 28/23/4 48/34/4 45/34/4 
f 45/34/4 23/23/4 28/23/4 
f 48/34/4 68/45/4 65/45/4 
f 65/45/4 45/34/4 48/34/4 
f 68/45/4 109/56/4 87/56/4 
f 87/56/4 65/45/4 68/45/4 
f 109/56/4 112/67/4 107/67/4 
f 107/67/4 87/56/4 109/56/4 
f 112/67/4 132/78/4 129/78/4 
f 129/78/4 107/67/4 112/67/4 
f 132/78/4 150/89/4 147/89/4 
f 147/89/4 129/78/4 132/78/4 
f 150/89/4 170/100/4 167/100/4 
f 167/100/4 147/89/4 150/89/4 
f 170/100/3 169/102/3 189/102/3 
f 189/102/3 167/100/3 170/100/3 
f 169/102/3 172/103/3 174/103/3 
f 174/103/3 189/102/3 169/102/3 
f 172/103/3 241/104/3 173/104/3 
f 173/104/3 174/103/3 172/103/3 
f 241/104/3 242/105/3 176/105/3 
f 176/105/3 173/104/3 241/104/3 
f 242/105/3 180/106/3 178/106/3 
f 178/106/3 176/105/3 242/105/3 
f 180/106/3 179/107/3 195/107/3 
f 195/107/3 178/106/3 180/106/3 
f 179/107/3 182/108/3 197/108/3 
f 197/108/3 195/107/3 179/107/3 
f 182/108/3 184/109/3 186/109/3 
f 186/109/3 197/108/3 182/108/3 
f 184/109/2 183/98/2 165/98/2 
f 165/98/2 186/109/2 184/109/2 
f 183/98/2 144/87/2 146/87/2 
f 146/87/2 165/98/2 183/98/2 
f 144/87/2 125/76/2 128/76/2 
f 128/76/2 146/87/2 144/87/2 
f 125/76/2 103/65/2 106/65/2 
f 106/65/2 128/76/2 125/76/2 
f 103/65/2 84/54/2 86/54/2 
f 86/54/2 106/65/2 103/65/2 
f 84/54/2 83/43/2 63/43/2 
f 63/43/2 86/54/2 84/54/2 
f 83/43/2 42/32/2 44/32/2 
f 44/32/2 63/43/2 83/43/2 
f 42/32/2 41/20/2 20/20/2 
f 20/20/2 44/32/2 42/32/2 
f 41/20/5 39/18/5 18/18/5 
f 18/18/5 20/20/5 41/20/5 
f 39/18/5 37/16/5 16/16/5 
f 16/16/5 18/18/5 39/18/5 
f 37/16/5 35/14/5 14/14/5 
f 14/14/5 16/16/5 37/16/5 
f 35/14/5 33/12/5 12/12/5 
f 12/12/5 14/14/5 35/14/5 
f 33/12/5 31/10/5 10/10/5 
f 10/10/5 12/12/5 33/12/5 
f 31/10/5 29/8/5 8/8/5 
f 8/8/5 10/10/5 31/10/5 
f 29/8/5 26/6/5 6/6/5 
f 6/6/5 8/8/5 29/8/5 
f 27/25/3 30/26/3 50/26/3 
f 50/26/3 49/25/3 27/25/3 
f 30/26/3 32/27/3 53/27/3 
f 53/27/3 50/26/3 30/26/3 
f 32/27/3 34/28/3 55/28/3 
f 55/28/3 53/27/3 32/27/3 
f 34/28/3 36/29/3 57/29/3 
f 57/29/3 55/28/3 34/28/3 
f 36/29/3 38/30/3 59/30/3 
f 59/30/3 57/29/3 36/29/3 
f 38/30/3 40/31/3 61/31/3 
f 61/31/3 59/30/3 38/30/3 
f 40/31/3 42/32/3 44/32/3 
f 44/32/3 61/31/3 40/31/3 
f 42/32/4 83/43/4 63/43/4 
f 63/43/4 44/32/4 42/32/4 
f 83/43/5 81/42/5 62/42/5 
f 62/42/5 63/43/5 83/43/5 
f 81/42/5 78/41/5 60/41/5 
f 60/41/5 62/42/5 81/42/5 
f 78/41/5 77/40/5 58/40/5 
f 58/40/5 60/41/5 78/41/5 
f 77/40/4 80/51/4 75/51/4 
f 75/51/4 58/40/4 77/40/4 
f 80/51/5 74/50/5 76/50/5 
f 76/50/5 75/51/5 80/51/5 
f 74/50/2 73/39/2 56/39/2 
f 56/39/2 76/50/2 74/50/2 
f 73/39/5 71/38/5 54/38/5 
f 54/38/5 56/39/5 73/39/5 
f 71/38/5 69/37/5 51/37/5 
f 51/37/5 54/38/5 71/38/5 
f 69/37/5 47/36/5 52/36/5 
f 52/36/5 51/37/5 69/37/5 
f 47/36/2 27/25/2 49/25/2 
f 49/25/2 52/36/2 47/36/2 
f 68/45/3 67/47/3 89/47/3 
f 89/47/3 65/45/3 68/45/3 
f 67/47/3 70/48/3 91/48/3 
f 91/48/3 89/47/3 67/47/3 
f 70/48/3 72/49/3 93/49/3 
f 93/49/3 91/48/3 70/48/3 
f 72/49/4 96/60/4 94/60/4 
f 94/60/4 93/49/4 72/49/4 
f 96/60/5 115/59/5 92/59/5 
f 92/59/5 94/60/5 96/60/5 
f 115/59/4 117/70/4 113/70/4 
f 113/70/4 92/59/4 115/59/4 
f 117/70/5 111/69/5 114/69/5 
f 114/69/5 113/70/5 117/70/5 
f 111/69/2 110/58/2 90/58/2 
f 90/58/2 114/69/2 111/69/2 
f 110/58/5 109/56/5 87/56/5 
f 87/56/5 90/58/5 110/58/5 
f 109/56/2 68/45/2 65/45/2 
f 65/45/2 87/56/2 109/56/2 
f 79/52/3 82/53/3 100/53/3 
f 100/53/3 99/52/3 79/52/3 
f 82/53/4 104/64/4 101/64/4 
f 101/64/4 100/53/4 82/53/4 
f 104/64/4 126/75/4 124/75/4 
f 124/75/4 101/64/4 104/64/4 
f 126/75/5 140/74/5 123/74/5 
f 123/74/5 124/75/5 126/75/5 
f 140/74/5 139/73/5 122/73/5 
f 122/73/5 123/74/5 140/74/5 
f 139/73/4 142/84/4 137/84/4 
f 137/84/4 122/73/4 139/73/4 
f 142/84/5 136/83/5 138/83/5 
f 138/83/5 137/84/5 142/84/5 
f 136/83/2 135/72/2 119/72/2 
f 119/72/2 138/83/2 136/83/2 
f 135/72/5 116/71/5 120/71/5 
f 120/71/5 119/72/5 135/72/5 
f 116/71/2 96/60/2 94/60/2 
f 94/60/2 120/71/2 116/71/2 
f 96/60/3 95/61/3 118/61/3 
f 118/61/3 94/60/3 96/60/3 
f 95/61/3 97/62/3 121/62/3 
f 121/62/3 118/61/3 95/61/3 
f 97/62/3 98/63/3 102/63/3 
f 102/63/3 121/62/3 97/62/3 
f 98/63/2 79/52/2 99/52/2 
f 99/52/2 102/63/2 98/63/2 
f 131/80/3 133/81/3 152/81/3 
f 152/81/3 151/80/3 131/80/3 
f 133/81/3 134/82/3 155/82/3 
f 155/82/3 152/81/3 133/81/3 
f 134/82/4 158/93/4 156/93/4 
f 156/93/4 155/82/4 134/82/4 
f 158/93/3 157/94/3 175/94/3 
f 175/94/3 156/93/3 158/93/3 
f 157/94/3 159/95/3 177/95/3 
f 177/95/3 175/94/3 157/94/3 
f 159/95/4 180/106/4 178/106/4 
f 178/106/4 177/95/4 159/95/4 
f 180/106/5 242/105/5 176/105/5 
f 176/105/5 178/106/5 180/106/5 
f 242/105/5 241/104/5 173/104/5 
f 173/104/5 176/105/5 242/105/5 
f 241/104/5 172/103/5 174/103/5 
f 174/103/5 173/104/5 241/104/5 
f 172/103/2 171/92/2 153/92/2 
f 153/92/2 174/103/2 172/103/2 
f 171/92/5 149/91/5 154/91/5 
f 154/91/5 153/92/5 171/92/5 
f 149/91/2 131/80/2 151/80/2 
f 151/80/2 154/91/2 149/91/2 
f 141/85/3 143/86/3 162/86/3 
f 162/86/3 161/85/3 141/85/3 
f 143/86/3 144/87/3 146/87/3 
f 146/87/3 162/86/3 143/86/3 
f 144/87/4 183/98/4 165/98/4 
f 165/98/4 146/87/4 144/87/4 
f 183/98/5 181/97/5 163/97/5 
f 163/97/5 165/98/5 183/98/5 
f 181/97/5 160/96/5 164/96/5 
f 164/96/5 163/97/5 181/97/5 
f 160/96/2 141/85/2 161/85/2 
f 161/85/2 164/96/2 160/96/2 
# 464 faces

